<svg xmlns="http://www.w3.org/2000/svg" width="25" height="25" viewBox="0 0 25 25" fill="none">
<circle cx="12.5" cy="12.5" r="12.5" fill="black"/>
<path d="M8.50586 11.312L6.15869 13.2456L8.45752 14.9697L7.88281 15.668L4.77295 14.1104L3.9834 12.8159L4.44531 12.542L4.77295 13.0791L5.10596 12.9019L4.77295 12.3433L5.15967 12.1069L5.51416 12.6816L5.8418 12.4346L5.53027 11.8975L5.92236 11.6665L6.18555 12.1338L6.5293 11.9243L6.27148 11.4624L7.89893 10.4634L8.50586 11.312ZM16.6216 8.08936L16.5034 8.94336C16.2671 8.90039 16.0326 8.86816 15.7998 8.84668C15.5671 8.8252 15.3397 8.81445 15.1177 8.81445C14.8348 8.81445 14.5483 8.83236 14.2583 8.86816C13.9718 8.90397 13.6818 8.95589 13.3882 9.02393L13.8984 16.9731L11.4707 16.6562L12.0723 9.08838L11.707 9.09375C11.3167 9.10091 10.973 9.08301 10.6758 9.04004C10.3822 8.99707 10.1387 8.92725 9.94531 8.83057C9.67676 8.6945 9.47624 8.50651 9.34375 8.2666C9.21484 8.02669 9.15039 7.72949 9.15039 7.375V7.24072L9.51025 7.11719C9.52458 7.51823 9.67497 7.81901 9.96143 8.01953C10.2515 8.21647 10.674 8.31494 11.229 8.31494C11.6981 8.31494 12.3945 8.24512 13.3184 8.10547C14.2458 7.96582 14.944 7.896 15.4131 7.896C15.6602 7.896 15.8857 7.9139 16.0898 7.94971C16.2939 7.98193 16.4712 8.02848 16.6216 8.08936ZM13.0767 11.4624C13.0767 11.3335 13.0444 11.2368 12.98 11.1724C12.9191 11.1079 12.8242 11.0757 12.6953 11.0757C12.5664 11.0757 12.4679 11.1079 12.3999 11.1724C12.3354 11.2368 12.3032 11.3335 12.3032 11.4624C12.3032 11.5949 12.3354 11.6934 12.3999 11.7578C12.4679 11.8187 12.5664 11.8491 12.6953 11.8491C12.8242 11.8491 12.9191 11.8187 12.98 11.7578C13.0444 11.6934 13.0767 11.5949 13.0767 11.4624ZM13.168 13.063C13.168 12.9305 13.1196 12.8159 13.0229 12.7192C12.9299 12.619 12.8153 12.5688 12.6792 12.5688C12.5431 12.5688 12.4268 12.619 12.3301 12.7192C12.2334 12.8159 12.1851 12.9305 12.1851 13.063C12.1851 13.2026 12.2334 13.3208 12.3301 13.4175C12.4268 13.5142 12.5431 13.5625 12.6792 13.5625C12.8153 13.5625 12.9299 13.5142 13.0229 13.4175C13.1196 13.3208 13.168 13.2026 13.168 13.063ZM13.0498 14.7495C13.0498 14.6242 13.0176 14.5293 12.9531 14.4648C12.8923 14.4004 12.7974 14.3682 12.6685 14.3682C12.5396 14.3682 12.4411 14.4004 12.373 14.4648C12.3086 14.5293 12.2764 14.6242 12.2764 14.7495C12.2764 14.8784 12.3086 14.9751 12.373 15.0396C12.4411 15.1004 12.5396 15.1309 12.6685 15.1309C12.7974 15.1309 12.8923 15.1004 12.9531 15.0396C13.0176 14.9751 13.0498 14.8784 13.0498 14.7495ZM20.5801 13.729L17.4541 15.668L16.8525 14.8193L19.1943 12.8911L16.8901 11.1616L17.4648 10.4634L20.5801 12.0264V13.729ZM20.145 12.3003C20.145 12.1857 20.1021 12.0854 20.0161 11.9995C19.9302 11.9136 19.8299 11.8706 19.7153 11.8706C19.6007 11.8706 19.5005 11.9136 19.4146 11.9995C19.3322 12.0854 19.291 12.1857 19.291 12.3003C19.291 12.4113 19.3322 12.5098 19.4146 12.5957C19.5005 12.6816 19.6007 12.7246 19.7153 12.7246C19.8299 12.7246 19.9302 12.6816 20.0161 12.5957C20.1021 12.5098 20.145 12.4113 20.145 12.3003ZM20.043 13.4927C20.043 13.3781 20.0018 13.2778 19.9194 13.1919C19.8371 13.106 19.7386 13.063 19.624 13.063C19.5059 13.063 19.4038 13.106 19.3179 13.1919C19.2355 13.2778 19.1943 13.3781 19.1943 13.4927C19.1943 13.6073 19.2355 13.7075 19.3179 13.7935C19.4038 13.8758 19.5059 13.917 19.624 13.917C19.7386 13.917 19.8371 13.8758 19.9194 13.7935C20.0018 13.7075 20.043 13.6073 20.043 13.4927Z" fill="white"/>
</svg>